
<svg width="106" height="38" viewBox="0 0 106 38" fill="none" xmlns="http://www.w3.org/2000/svg">
<path d="M105.236 19.7291C105.065 19.8647 105.119 20.0635 105.092 20.2353C104.874 21.4103 104.3 22.4898 103.447 23.3266C102.154 24.6462 100.835 25.9388 99.542 27.2404C99.4271 27.3638 99.2868 27.4609 99.1307 27.5249C98.9747 27.5889 98.8066 27.6182 98.6381 27.611H89.9427C88.7063 27.5664 87.5291 27.0697 86.6345 26.215C85.7398 25.3604 85.1899 24.2072 85.0889 22.974C85.0889 22.3956 85.0889 21.8171 85.0889 21.2386C85.0889 20.8499 85.2154 20.7414 85.595 20.7505H91.9222C92.3326 20.7747 92.7384 20.6541 93.0688 20.4096C93.3992 20.1651 93.6332 19.8122 93.73 19.4127C93.8188 18.991 93.7375 18.5513 93.504 18.1891C93.2704 17.827 92.9034 17.5716 92.4826 17.4784C92.1391 17.4229 91.7911 17.3987 91.4432 17.4061C89.5179 17.4061 87.5926 17.4061 85.6764 17.4061C85.2425 17.4061 85.0798 17.2796 85.0798 16.8367C85.0798 11.793 85.0798 6.75235 85.0798 1.71471C85.0798 0.955449 85.0798 0.919294 85.8391 0.810828C86.7579 0.619791 87.7097 0.658429 88.61 0.923318C89.5103 1.18821 90.3313 1.67116 91.0003 2.32935C95.2184 6.54747 99.4365 10.7807 103.655 15.0289C104.506 15.9135 105.032 17.0607 105.146 18.2829C105.146 18.3642 105.146 18.4727 105.236 18.5089V19.7291Z" fill="#29AB00"/>
<path d="M86.2911 37.4637C85.9797 37.3245 85.6461 37.2419 85.3058 37.2196C84.2497 36.9542 83.2867 36.4039 82.5219 35.6288L72.1453 25.2522C71.6391 24.737 71.6391 24.737 72.0458 24.1585C73.1444 22.6619 73.7367 20.8538 73.7367 18.9973C73.7367 17.1408 73.1444 15.3328 72.0458 13.8362C71.6572 13.2757 71.6572 13.2667 72.1543 12.7786L81.392 3.64035C81.4734 3.559 81.5366 3.40534 81.6812 3.45958C81.8259 3.51381 81.7536 3.67651 81.7536 3.79401C81.7536 8.19592 81.7536 12.5978 81.7536 16.9907C81.7536 19.1871 81.627 21.3836 81.8349 23.571C82.0766 25.3475 82.8723 27.0026 84.1088 28.3008C85.3454 29.599 86.9598 30.4743 88.7225 30.802C89.4618 30.9105 90.2079 30.9649 90.9551 30.9647H95.6101C95.6914 31.1184 95.6101 31.1907 95.5287 31.263C93.9921 32.7454 92.5369 34.3091 90.9641 35.7824C89.9675 36.7407 88.6648 37.3169 87.2853 37.4094C87.2554 37.404 87.2246 37.4105 87.1993 37.4273C87.174 37.4442 87.1563 37.4701 87.1497 37.4998L86.2911 37.4637Z" fill="#29AB00"/>
<path d="M52.5854 37.3013C51.7067 37.2974 50.839 37.1068 50.0396 36.7421C49.2401 36.3775 48.5274 35.8471 47.9484 35.1862C47.2796 34.4811 46.5745 33.7942 45.8876 33.1072C43.2181 30.4317 40.5456 27.7593 37.8701 25.0898C37.5357 24.7644 37.4815 24.5294 37.7798 24.1317C38.9162 22.627 39.5311 20.7929 39.5311 18.9072C39.5311 17.0216 38.9162 15.1874 37.7798 13.6828C37.4905 13.3032 37.5447 13.0862 37.8611 12.7789C41.1814 9.51288 44.4956 6.24083 47.8038 2.96274C48.6274 1.98263 49.707 1.25041 50.9222 0.847657C51.9724 0.529442 53.09 0.507045 54.1521 0.78293C55.2141 1.05881 56.1795 1.62229 56.9421 2.41138C61.0819 6.53308 65.2036 10.6668 69.3072 14.8126C70.4051 15.9396 71.015 17.4535 71.0049 19.0268C70.9947 20.6001 70.3653 22.1061 69.253 23.2188C65.0891 27.3706 60.9011 31.5254 56.689 35.6833C56.1473 36.2128 55.5052 36.6286 54.8005 36.9065C54.0958 37.1843 53.3427 37.3185 52.5854 37.3013ZM52.3232 30.8475C54.5424 30.9194 56.7016 30.1196 58.3385 28.6195C59.9755 27.1194 60.9602 25.0381 61.0819 22.8211C61.1744 21.135 60.7624 19.4596 59.8986 18.0088C59.0347 16.5579 57.7581 15.3973 56.2318 14.6752C54.7054 13.953 52.9985 13.7021 51.3288 13.9543C49.6592 14.2066 48.1026 14.9506 46.8577 16.0914C45.6128 17.2323 44.7361 18.7182 44.3394 20.3595C43.9427 22.0008 44.0441 23.7231 44.6306 25.3066C45.2171 26.89 46.2621 28.2628 47.6323 29.2497C49.0024 30.2366 50.6355 30.7929 52.3232 30.8475Z" fill="#29AB00"/>
<path d="M27.1138 6.5871C27.2393 6.77755 27.3783 6.95879 27.5296 7.12943C30.0605 9.68742 32.6365 12.2002 35.1313 14.7944C36.2234 15.9282 36.8214 17.4488 36.7943 19.0228C36.7672 20.5968 36.1171 22.0959 34.9866 23.1914C31.1903 26.9998 27.379 30.7931 23.5525 34.5713C22.7853 35.4407 21.8665 36.1635 20.8409 36.7045C19.7325 37.1938 18.503 37.3399 17.3109 37.124C16.1187 36.9081 15.0185 36.3401 14.1521 35.4933L5.71892 27.051L1.8051 23.1191C1.23386 22.5632 0.779809 21.8985 0.469772 21.1642C0.159736 20.4298 0 19.6408 0 18.8438C0 18.0467 0.159736 17.2577 0.469772 16.5233C0.779809 15.789 1.23386 15.1243 1.8051 14.5684C5.92681 10.4467 10.0666 6.33703 14.2245 2.23943C15.3361 1.14689 16.8256 0.524256 18.3841 0.500694C19.9426 0.477132 21.4503 1.05446 22.5944 2.11288C22.9366 2.40446 23.2056 2.77224 23.3799 3.18667C23.5541 3.6011 23.6287 4.05063 23.5977 4.49914C23.5344 7.39156 23.5977 10.284 23.5977 13.1764C23.5977 13.7911 23.5977 13.7911 22.9921 13.7911C21.3742 13.7911 19.7562 13.7911 18.1473 13.7911C16.9521 13.8282 15.7781 14.1175 14.7025 14.64C13.6269 15.1625 12.6738 15.9065 11.9057 16.823C11.1377 17.7396 10.5719 18.8081 10.2456 19.9586C9.91936 21.109 9.83986 22.3154 10.0124 23.4988C10.335 25.4809 11.3344 27.2901 12.8407 28.6183C14.3469 29.9466 16.2669 30.7119 18.2738 30.7841C19.4029 30.79 20.522 30.5728 21.5669 30.1448C22.6117 29.7169 23.5617 29.0866 24.3621 28.2903C25.1626 27.4941 25.7978 26.5474 26.2313 25.5049C26.6647 24.4623 26.8879 23.3443 26.8879 22.2152C26.8879 18.0303 26.8879 13.8362 26.8879 9.65127V6.69557L27.1138 6.5871Z" fill="#29AB00"/>
<path d="M23.5616 20.0551C23.5964 21.1631 23.545 22.2722 23.4079 23.3723C23.1384 24.6115 22.4206 25.7074 21.3923 26.4496C20.3641 27.1917 19.0978 27.5278 17.8369 27.3933C16.5759 27.2588 15.409 26.6632 14.5604 25.7208C13.7119 24.7785 13.2413 23.5558 13.2393 22.2877C13.2262 20.9748 13.7228 19.7079 14.6247 18.7538C15.5266 17.7996 16.7635 17.2325 18.075 17.1717C19.7472 17.1084 21.4194 17.1717 23.1006 17.1717C23.4622 17.1717 23.5345 17.3525 23.5345 17.6598C23.5526 18.4462 23.5616 19.2506 23.5616 20.0551Z" fill="#29AB00"/>
<path d="M47.424 22.3508C47.471 21.0175 48.0316 19.7539 48.9887 18.8243C49.9458 17.8947 51.2251 17.3711 52.5593 17.3629C53.8935 17.3547 55.1792 17.8626 56.1476 18.7804C57.1159 19.6982 57.692 20.9549 57.7554 22.2876C57.7884 22.9837 57.6804 23.6794 57.4378 24.3328C57.1952 24.9862 56.823 25.5837 56.3435 26.0896C55.8641 26.5955 55.2873 26.9992 54.6479 27.2764C54.0085 27.5537 53.3196 27.6988 52.6226 27.7031C51.9257 27.7074 51.2351 27.5707 50.5923 27.3013C49.9495 27.0318 49.3679 26.6352 48.8823 26.1353C48.3967 25.6353 48.0172 25.0424 47.7666 24.392C47.516 23.7417 47.3994 23.0474 47.424 22.3508Z" fill="#29AB00"/>
</svg>
